HIERARCHY
ROOT Hips
{
	OFFSET 0.000000 0.000000 0.000000
	CHANNELS 6 Xposition Yposition Zposition Zrotation Yrotation Xrotation 
	JOINT LHipJoint
	{
		OFFSET 0.000000 0.000000 0.000000
		CHANNELS 3 Zrotation Yrotation Xrotation
		JOINT LeftUpLeg
		{
			OFFSET 1.363060 -1.794630 0.839290
			CHANNELS 3 Zrotation Yrotation Xrotation
			JOINT LeftLeg
			{
				OFFSET 2.448110 -6.726130 0.000000
				CHANNELS 3 Zrotation Yrotation Xrotation
				JOINT LeftFoot
				{
					OFFSET 2.562200 -7.039590 0.000000
					CHANNELS 3 Zrotation Yrotation Xrotation
					JOINT LeftToeBase
					{
						OFFSET 0.157640 -0.433110 2.322550
						CHANNELS 3 Zrotation Yrotation Xrotation
						End Site
						{
							OFFSET 0.000000 0.000000 0.000000
						}
					}
				}
			}
		}
	}
	JOINT RHipJoint
	{
		OFFSET 0.000000 0.000000 0.000000
		CHANNELS 3 Zrotation Yrotation Xrotation
		JOINT RightUpLeg
		{
			OFFSET -1.305520 -1.794630 0.839290
			CHANNELS 3 Zrotation Yrotation Xrotation
			JOINT RightLeg
			{
				OFFSET -2.542530 -6.985550 0.000000
				CHANNELS 3 Zrotation Yrotation Xrotation
				JOINT RightFoot
				{
					OFFSET -2.568260 -7.056230 0.000000
					CHANNELS 3 Zrotation Yrotation Xrotation
					JOINT RightToeBase
					{
						OFFSET -0.164730 -0.452590 2.363150
						CHANNELS 3 Zrotation Yrotation Xrotation
						End Site
						{
							OFFSET 0.000000 0.000000 0.000000
						}
					}
				}
			}
		}
	}
	JOINT LowerBack
	{
		OFFSET 0.000000 0.000000 0.000000
		CHANNELS 3 Zrotation Yrotation Xrotation
		JOINT Spine
		{
			OFFSET 0.028270 2.035590 -0.193380
			CHANNELS 3 Zrotation Yrotation Xrotation
			JOINT Spine1
			{
				OFFSET 0.056720 2.048850 -0.042750
				CHANNELS 3 Zrotation Yrotation Xrotation
				JOINT Neck
				{
					OFFSET 0.000000 0.000000 0.000000
					CHANNELS 3 Zrotation Yrotation Xrotation
					JOINT Neck1
					{
						OFFSET -0.054170 1.746240 0.172020
						CHANNELS 3 Zrotation Yrotation Xrotation
						JOINT Head
						{
							OFFSET 0.104070 1.761360 -0.123970
							CHANNELS 3 Zrotation Yrotation Xrotation
							End Site
							{
								OFFSET 0.000000 0.000000 0.000000
							}
						}
					}
				}
				JOINT LeftShoulder
				{
					OFFSET 0.000000 0.000000 0.000000
					CHANNELS 3 Zrotation Yrotation Xrotation
					JOINT LeftArm
					{
						OFFSET 3.362410 1.200890 -0.311210
						CHANNELS 3 Zrotation Yrotation Xrotation
						JOINT LeftForeArm
						{
							OFFSET 4.983000 -0.000000 -0.000000
							CHANNELS 3 Zrotation Yrotation Xrotation
							JOINT LeftHand
							{
								OFFSET 3.483560 -0.000000 -0.000000
								CHANNELS 3 Zrotation Yrotation Xrotation
								JOINT LeftFingerBase
								{
									OFFSET 0.000000 0.000000 0.000000
									CHANNELS 3 Zrotation Yrotation Xrotation
									JOINT LeftHandIndex1
									{
										OFFSET 0.715260 -0.000000 -0.000000
										CHANNELS 3 Zrotation Yrotation Xrotation
										End Site
										{
											OFFSET 0.000000 0.000000 0.000000
										}
									}
								}
								JOINT LThumb
								{
									OFFSET 0.000000 0.000000 0.000000
									CHANNELS 3 Zrotation Yrotation Xrotation
									End Site
									{
										OFFSET 0.000000 0.000000 0.000000
									}
								}
							}
						}
					}
				}
				JOINT RightShoulder
				{
					OFFSET 0.000000 0.000000 0.000000
					CHANNELS 3 Zrotation Yrotation Xrotation
					JOINT RightArm
					{
						OFFSET -3.136600 1.374050 -0.404650
						CHANNELS 3 Zrotation Yrotation Xrotation
						JOINT RightForeArm
						{
							OFFSET -5.241900 -0.000000 -0.000000
							CHANNELS 3 Zrotation Yrotation Xrotation
							JOINT RightHand
							{
								OFFSET -3.444170 -0.000000 -0.000000
								CHANNELS 3 Zrotation Yrotation Xrotation
								JOINT RightFingerBase
								{
									OFFSET 0.000000 0.000000 0.000000
									CHANNELS 3 Zrotation Yrotation Xrotation
									JOINT RightHandIndex1
									{
										OFFSET -0.622530 -0.000000 -0.000000
										CHANNELS 3 Zrotation Yrotation Xrotation
										End Site
										{
											OFFSET 0.000000 0.000000 0.000000
										}
									}
								}
								JOINT RThumb
								{
									OFFSET 0.000000 0.000000 0.000000
									CHANNELS 3 Zrotation Yrotation Xrotation
									End Site
									{
										OFFSET 0.000000 0.000000 0.000000
									}
								}
							}
						}
					}
				}
			}
		}
	}
}
MOTION
Frames: 10
Frame Time: 0.008333
-20.411996 15.819189 -1.687392 -85.564779 85.726272 -55.943779 -7.536648 -1.384437 3.913165 3.166204 -3.694093 -69.934791 -0.384702 2.405824 44.430752 1.503716 5.980041 -3.481982 0.924500 0.000001 -42.111400 12.439018 -2.826378 -1.879605 4.554752 -7.992470 -2.885722 1.526045 -0.835079 18.487395 -0.242297 -0.919942 4.795211 -0.437200 0.000000 -91.031200 -6.287810 0.009616 -0.333790 -2.045615 0.310051 -2.916602 -5.308734 0.209917 1.272176 8.869631 -4.718962 -7.122306 -2.528252 -0.189762 -0.072081 0.000000 0.000000 0.000000 -7.957226 8.772004 2.608463 -60.527164 21.235815 13.169179 -4.421690 -26.352310 -0.026955 -14.708924 1.851775 -0.250473 -0.068500 -0.094629 -0.000000 0.000000 0.000000 0.000000 0.000000 0.000000 0.000000 11.687317 -0.945732 3.113974 36.249805 25.489766 20.466793 1.370988 69.857679 0.045255 13.355367 9.109708 1.110324 -0.109826 -0.272971 -0.000000 0.000000 0.000000 0.000000 0.000000 0.000000 0.000000 
-20.191825 15.850027 -1.731640 -72.437051 85.353777 -43.111454 -7.667092 -0.958371 3.808223 2.563598 -2.909630 -69.131408 -0.469136 2.593851 45.059270 1.507480 5.902655 -4.020746 0.831100 0.000000 -42.297200 12.457363 -2.607719 -1.989388 3.996436 -8.502718 -4.195400 1.095123 -1.073583 21.870629 -0.301557 -1.219369 7.852679 -0.535300 0.000000 -91.738700 -6.706287 0.171434 -0.238036 -2.150824 0.490481 -2.914435 -5.373516 0.390085 1.243140 9.033407 -4.705720 -7.043199 -2.548837 -0.192067 -0.051076 0.000000 0.000000 0.000000 -7.925758 8.564954 2.591720 -60.627238 20.797036 12.798315 -4.452900 -25.554808 -0.027215 -14.737169 2.129502 -0.286584 -0.070216 -0.093851 -0.000000 0.000000 0.000000 0.000000 0.000000 0.000000 0.000000 11.897262 -0.873000 3.121059 36.667372 25.082872 20.875200 1.373187 69.968388 0.045521 13.485075 9.066029 1.115725 -0.110313 -0.271470 -0.000000 0.000000 0.000000 0.000000 0.000000 0.000000 0.000000 
-19.974306 15.886317 -1.774736 -62.723867 85.116552 -33.664515 -7.894863 -0.691287 3.679135 1.874317 -2.211735 -68.213644 -0.579393 2.747741 45.474758 1.498019 5.756438 -4.740337 0.713200 -0.000000 -42.575700 12.366462 -2.428641 -2.091830 3.507563 -8.982711 -5.671374 0.669216 -1.295004 25.345301 -0.453326 -1.910083 10.769402 -0.742700 -0.000000 -90.791500 -7.204647 0.236636 -0.122961 -2.263359 0.578421 -2.902957 -5.429214 0.477493 1.217728 9.185947 -4.681227 -6.942990 -2.575956 -0.195059 -0.024923 0.000000 0.000000 0.000000 -7.865533 8.274981 2.589540 -60.719321 20.248446 12.454225 -4.485577 -24.760611 -0.027194 -14.730611 2.404688 -0.321585 -0.072525 -0.092109 -0.000000 0.000000 0.000000 0.000000 0.000000 0.000000 0.000000 12.122313 -0.849966 3.109097 37.169546 24.668185 21.291454 1.379950 69.983450 0.045563 13.594064 9.036096 1.120928 -0.110434 -0.269316 -0.000000 0.000000 0.000000 0.000000 0.000000 0.000000 0.000000 
-19.759424 15.927737 -1.816511 -55.934172 85.005135 -27.110275 -8.133309 -0.542690 3.524269 1.159411 -1.597863 -67.189500 -0.705903 2.851782 45.691539 1.474197 5.540460 -5.584075 0.580700 0.000000 -42.922200 12.260502 -2.272546 -2.175646 3.145200 -9.410831 -7.282834 0.279913 -1.491746 28.870550 -0.684210 -2.987859 13.375006 -1.109400 0.000000 -88.180700 -7.648823 0.220000 0.011760 -2.359616 0.582225 -2.882139 -5.483071 0.481170 1.198123 9.325301 -4.651348 -6.826229 -2.609433 -0.198699 0.005311 0.000000 0.000000 0.000000 -7.779101 7.921647 2.599185 -60.797890 19.585442 12.147462 -4.516477 -23.987675 -0.026858 -14.687689 2.666302 -0.353777 -0.075158 -0.089339 -0.000000 0.000000 0.000000 0.000000 0.000000 0.000000 0.000000 12.357927 -0.874868 3.078696 37.750133 24.250198 21.713670 1.391558 69.901408 0.045355 13.681856 9.018926 1.125728 -0.110166 -0.266390 -0.000000 0.000000 0.000000 0.000000 0.000000 0.000000 0.000000 
-19.547225 15.974073 -1.856904 -51.588975 84.986114 -22.972309 -8.333084 -0.460460 3.353253 0.472895 -1.053578 -66.070245 -0.841489 2.904152 45.718739 1.438609 5.265047 -6.490226 0.444500 -0.000000 -43.304800 12.187115 -2.118134 -2.238483 2.942283 -9.769541 -8.996947 -0.052732 -1.660955 32.407341 -0.970305 -4.414051 15.505102 -1.658600 0.000000 -84.171800 -7.962219 0.147630 0.160523 -2.427186 0.524351 -2.854914 -5.540540 0.423792 1.181886 9.448493 -4.616399 -6.694926 -2.648353 -0.202913 0.039415 0.000000 0.000000 0.000000 -7.676040 7.516929 2.616515 -60.852800 18.825705 11.877950 -4.543215 -23.268846 -0.026234 -14.610190 2.904901 -0.381859 -0.077899 -0.085684 -0.000000 0.000000 0.000000 0.000000 0.000000 0.000000 0.000000 12.594101 -0.933112 3.033105 38.413050 23.821864 22.134026 1.408734 69.720152 0.044927 13.752673 9.010921 1.130030 -0.109490 -0.262689 -0.000000 0.000000 0.000000 0.000000 0.000000 0.000000 0.000000 
-19.337453 16.025228 -1.895648 -49.030337 85.030311 -20.595762 -8.483723 -0.403178 3.179785 -0.158006 -0.573967 -64.862394 -0.981486 2.911007 45.555432 1.396447 4.954264 -7.397145 0.315100 0.000000 -43.685501 12.150864 -1.951598 -2.286130 2.893960 -10.055038 -10.788565 -0.322096 -1.807512 35.916377 -1.284431 -6.113752 17.034796 -2.370000 -0.000000 -79.275600 -8.141389 0.042126 0.315623 -2.467221 0.427230 -2.823543 -5.603379 0.327746 1.170345 9.558073 -4.582918 -6.556412 -2.691751 -0.207521 0.075496 0.000000 0.000000 0.000000 -7.556794 7.090337 2.638043 -60.873989 17.961404 11.655698 -4.565007 -22.622677 -0.025347 -14.501104 3.111067 -0.404434 -0.080635 -0.081268 -0.000000 0.000000 0.000000 0.000000 0.000000 0.000000 0.000000 12.830719 -1.017696 2.975145 39.157030 23.386950 22.547154 1.431922 69.435486 0.044315 13.805174 9.008578 1.133430 -0.108343 -0.258315 -0.000000 0.000000 0.000000 0.000000 0.000000 0.000000 0.000000 
-19.130113 16.081203 -1.932572 -47.916358 85.116841 -19.638251 -8.585107 -0.349746 3.014562 -0.713319 -0.163480 -63.573169 -1.120576 2.876984 45.200122 1.352337 4.634368 -8.247112 0.200399 0.000000 -44.028600 12.148670 -1.773351 -2.323493 2.992773 -10.265721 -12.639439 -0.530969 -1.942379 39.348835 -1.604095 -7.992411 17.905391 -3.184200 0.000001 -74.094900 -8.192942 -0.082593 0.469760 -2.482073 0.305086 -2.790715 -5.672278 0.207057 1.161432 9.654603 -4.551358 -6.415274 -2.738374 -0.212363 0.112393 0.000000 0.000000 0.000000 -7.425653 6.655041 2.662516 -60.849992 17.000335 11.481954 -4.582084 -22.074539 -0.024232 -14.366104 3.276976 -0.420600 -0.083337 -0.076216 -0.000000 0.000000 0.000000 0.000000 0.000000 0.000000 0.000000 13.062171 -1.119135 2.906893 39.989883 22.933273 22.938287 1.461613 69.044739 0.043568 13.843751 9.006532 1.135632 -0.106731 -0.253333 -0.000000 0.000000 0.000000 0.000000 0.000000 0.000000 0.000000 
-18.924421 16.142010 -1.967459 -47.987200 85.232939 -19.838290 -8.643041 -0.291527 2.864855 -1.183809 0.168839 -62.208704 -1.253884 2.805787 44.649950 1.310438 4.332840 -8.992981 0.105300 0.000000 -44.306300 12.173489 -1.589308 -2.353883 3.224513 -10.400436 -14.536646 -0.688788 -2.076550 42.654760 -1.912769 -9.938142 18.124280 -4.014100 0.000000 -69.141000 -8.134789 -0.218564 0.616641 -2.475984 0.166695 -2.758291 -5.747645 0.070318 1.154363 9.742287 -4.525624 -6.277798 -2.787778 -0.217314 0.148364 0.000000 0.000000 0.000000 -7.284474 6.223331 2.689560 -60.770713 15.947052 11.355106 -4.595359 -21.646708 -0.022924 -14.213809 3.399323 -0.430461 -0.086026 -0.070634 -0.000000 0.000000 0.000000 0.000000 0.000000 0.000000 0.000000 13.292269 -1.234853 2.830476 40.908989 22.455496 23.295889 1.497863 68.547509 0.042720 13.865466 9.000573 1.135838 -0.104592 -0.247848 -0.000000 0.000000 0.000000 0.000000 0.000000 0.000000 0.000000 
-18.720358 16.207643 -2.000193 -49.277334 85.367431 -21.226305 -8.658100 -0.228487 2.733713 -1.559276 0.416539 -60.777087 -1.376414 2.698742 43.906190 1.273656 4.072274 -9.601846 0.031100 0.000000 -44.501201 12.226039 -1.408358 -2.376918 3.582718 -10.455233 -16.470028 -0.806009 -2.218661 45.785103 -2.199269 -11.835712 17.749238 -4.766300 -0.000000 -64.730600 -7.969077 -0.361532 0.751713 -2.449849 0.016369 -2.727891 -5.829845 -0.078314 1.147196 9.822176 -4.505928 -6.148417 -2.839087 -0.222250 0.182193 0.000000 0.000000 0.000000 -7.137603 5.801073 2.719953 -60.627497 14.810232 11.271483 -4.605921 -21.359156 -0.021454 -14.053751 3.474940 -0.433911 -0.088735 -0.064592 -0.000000 0.000000 0.000000 0.000000 0.000000 0.000000 0.000000 13.518011 -1.360407 2.747103 41.916826 21.940451 23.602286 1.540760 67.943021 0.041801 13.871802 8.986150 1.133645 -0.101938 -0.241914 -0.000000 0.000000 0.000000 0.000000 0.000000 0.000000 0.000000 
-18.517679 16.277954 -2.030729 -51.877676 85.514539 -23.890485 -8.632843 -0.166856 2.620728 -1.838503 0.574966 -59.283553 -1.484306 2.556345 42.971213 1.243954 3.870042 -10.056762 -0.023200 -0.000000 -44.607400 12.305183 -1.240492 -2.390930 4.055754 -10.428822 -18.430804 -0.890552 -2.375059 48.695235 -2.455188 -13.574188 16.868729 -5.358399 0.000000 -60.980800 -7.701544 -0.510861 0.872439 -2.405044 -0.145055 -2.700412 -5.919166 -0.238123 1.138392 9.896455 -4.492562 -6.031110 -2.891762 -0.227080 0.212740 0.000000 0.000000 0.000000 -6.987752 5.391633 2.755070 -60.415132 13.598928 11.226694 -4.615071 -21.227711 -0.019842 -13.896667 3.502971 -0.431458 -0.091503 -0.058143 -0.000000 0.000000 0.000000 0.000000 0.000000 0.000000 0.000000 13.739702 -1.493676 2.657739 43.011071 21.378690 23.839426 1.590035 67.232215 0.040832 13.862234 8.960280 1.128557 -0.098800 -0.235613 -0.000000 0.000000 0.000000 0.000000 0.000000 0.000000 0.000000 
